<svg width="64" height="64" viewBox="0 0 64 64" fill="none" xmlns="http://www.w3.org/2000/svg">
<g clip-path="url(#clip0_62_6730)">
<path d="M32 3.75C38.5181 3.75263 44.835 6.00858 49.8801 10.1356C54.9253 14.2626 58.3886 20.0069 59.6832 26.3952C60.9778 32.7835 60.024 39.423 56.9836 45.1885C53.9431 50.9541 49.0029 55.4913 43 58.0312C36.0961 60.9486 28.316 61.004 21.3713 58.185C14.4266 55.3661 8.88613 49.9039 5.96875 43C3.05137 36.0961 2.99605 28.316 5.81495 21.3713C8.63386 14.4266 14.0961 8.88613 21 5.96875C24.4799 4.49613 28.2213 3.74146 32 3.75ZM32 0C14.3275 0 0 14.3275 0 32C0 49.6725 14.3275 64 32 64C49.6725 64 64 49.6725 64 32C64 14.3275 49.6725 0 32 0Z" fill="black"/>
<path d="M49.345 31.25C49.345 31.7307 49.154 32.1917 48.8141 32.5316C48.4742 32.8715 48.0132 33.0625 47.5325 33.0625C47.0518 33.0625 46.5908 32.8715 46.2508 32.5316C45.9109 32.1917 45.72 31.7307 45.72 31.25C45.716 27.7703 44.3319 24.4342 41.8714 21.9736C39.4108 19.5131 36.0747 18.129 32.595 18.125C32.1143 18.125 31.6533 17.934 31.3133 17.5941C30.9734 17.2542 30.7825 16.7932 30.7825 16.3125C30.7825 15.8318 30.9734 15.3708 31.3133 15.0309C31.6533 14.691 32.1143 14.5 32.595 14.5C41.8325 14.5 49.345 22.0125 49.345 31.25Z" fill="black"/>
<path d="M32.4224 23.4513C31.9417 23.4513 31.4807 23.2603 31.1408 22.9204C30.8009 22.5805 30.6099 22.1195 30.6099 21.6388C30.6099 21.1581 30.8009 20.697 31.1408 20.3571C31.4807 20.0172 31.9417 19.8263 32.4224 19.8263C35.4957 19.8296 38.4422 21.0518 40.6155 23.2248C42.7887 25.3979 44.0113 28.3442 44.0149 31.4175C44.0149 31.8982 43.824 32.3592 43.4841 32.6991C43.1442 33.039 42.6831 33.23 42.2024 33.23C41.7217 33.23 41.2607 33.039 40.9208 32.6991C40.5809 32.3592 40.3899 31.8982 40.3899 31.4175C40.3866 29.3055 39.5461 27.281 38.0526 25.7877C36.5591 24.2944 34.5344 23.4542 32.4224 23.4513ZM46.6099 44.0438C46.3938 44.9078 45.9732 45.7073 45.3837 46.375L44.3674 47.5C43.9936 47.9142 43.5565 48.2664 43.0724 48.5438C42.8543 48.6759 42.6276 48.7933 42.3937 48.895C41.4591 49.3023 40.4493 49.5084 39.4299 49.5C39.1799 49.5 38.9299 49.4883 38.6799 49.465C27.6037 48.465 18.1962 40.59 15.2687 29.84C15.0824 29.1563 14.9324 28.5125 14.8099 27.875C14.2899 25.1938 15.1737 23.0213 16.2887 22.0388C16.4112 21.8637 16.5448 21.6967 16.6887 21.5388L17.7024 20.4138C17.85 20.2538 18.007 20.1027 18.1724 19.9613C18.9034 19.3324 19.7911 18.9134 20.7412 18.7488C21.0394 18.6947 21.3418 18.6667 21.6449 18.665C22.9617 18.6647 24.2313 19.1549 25.2062 20.04L26.9199 21.59C27.8605 22.4404 28.4654 23.5996 28.6249 24.8575C28.6412 24.9925 28.6574 25.1288 28.6637 25.2663C28.7009 25.9632 28.5994 26.6606 28.3651 27.3181C28.1308 27.9755 27.7683 28.5799 27.2987 29.0963L26.2824 30.2213C25.7337 30.8292 25.0517 31.3019 24.2899 31.6025C26.3534 35.5318 29.7241 38.6172 33.8199 40.3263C34.0518 39.7756 34.3756 39.2684 34.7774 38.8263L35.7937 37.7013C36.7399 36.6594 38.0605 36.0349 39.4662 35.9646C40.8719 35.8943 42.2482 36.3839 43.2937 37.3263L45.0087 38.875C45.7136 39.5145 46.2341 40.3314 46.5157 41.2405C46.7974 42.1497 46.8299 43.1178 46.6099 44.0438Z" fill="black"/>
</g>
<defs>
<clipPath id="clip0_62_6730">
<rect width="64" height="64" fill="white"/>
</clipPath>
</defs>
</svg>
