<svg width="64" height="64" viewBox="0 0 64 64" fill="none" xmlns="http://www.w3.org/2000/svg">
<path d="M33.0999 20.375V19.575C33.0999 19.1625 33.4374 18.825 33.8499 18.825C34.2624 18.825 34.5999 19.1625 34.5999 19.575V20.375C35.8749 20.7125 36.7874 21.8625 36.7874 23.2125C36.7874 23.625 36.4499 23.9625 36.0374 23.9625C35.6249 23.9625 35.2874 23.625 35.2874 23.2125C35.2874 21.9375 33.7375 21.3 32.8375 22.2C32.575 22.4625 32.4249 22.8125 32.4249 23.2125C32.4249 24.2875 33.225 24.475 34.025 24.6625C35.4 24.9875 36.7874 25.325 36.7874 27.575C36.7874 28.925 35.8749 30.075 34.5999 30.4125V31.2125C34.5999 31.625 34.2624 31.9625 33.8499 31.9625C33.4374 31.9625 33.0999 31.625 33.0999 31.2125V30.4125C31.8374 30.075 30.9125 28.925 30.9125 27.575C30.9125 27.1625 31.25 26.825 31.6625 26.825C32.075 26.825 32.4124 27.1625 32.4124 27.575C32.4124 28.85 33.9625 29.4875 34.8624 28.5875C35.125 28.325 35.275 27.975 35.275 27.575C35.275 26.5 34.4749 26.3125 33.6749 26.125C32.2999 25.8 30.9125 25.475 30.9125 23.2125C30.925 21.8625 31.8374 20.7125 33.0999 20.375ZM42.4124 22.5125L39.625 18.575L36.0125 16.625C35.6875 16.55 35.3499 16.4875 34.9874 16.4375C32.2374 16.1 29.5375 17 27.575 18.9125C28.1375 20.4875 29.3375 21.775 29.7999 23.075C30.2249 24.25 30.1375 25.4125 29.3375 26.2125C28.55 27 27.2875 27.175 26.2 26.8625C25.7125 26.725 25.2625 26.4875 24.85 26.175C25.25 30.8125 29.1375 34.4125 33.8375 34.4125C40.075 34.4125 44.3499 28.3 42.4124 22.5125ZM10.125 18.675H13.7875C14.3 18.675 14.7125 18.2625 14.7125 17.75V5.55C14.7125 5.0375 14.3 4.625 13.7875 4.625H10.125C9.61245 4.625 9.19995 5.0375 9.19995 5.55V17.75C9.19995 18.25 9.61245 18.675 10.125 18.675ZM16.2 6.5375V16.475H17.575C17.8 16.475 18.0125 16.575 18.15 16.7375C19.4375 18.0625 20.575 19.3375 21.625 20.5125L24.0125 23.1875C24.9 24.2125 25.725 25.1625 26.625 25.4125C27.2 25.575 27.8874 25.5375 28.2999 25.1375C29.0749 24.3625 28.0625 22.825 27.5375 21.9875C26.85 20.8875 26.075 19.65 25.85 18.125C25.475 15.475 27.6125 14.2375 29.9125 13.9125C31.95 13.625 34.2999 13.9875 35.4375 14.6125L40.4874 17.3375C40.5999 17.4 40.6875 17.475 40.75 17.5625L44.4749 22.8375C46 25 48.5499 23.2875 47.2999 20.95C45.5499 17.6875 44.65 16.05 42.5625 13.525C41.6749 12.4375 40.15 11.125 38.6124 9.9625C36.6875 8.5 34.7874 7.275 34.1124 7.0625C31.0499 6.05 26.7125 6.2 20.975 6.4C19.4875 6.45 17.9 6.5 16.2 6.5375ZM31.15 42.0875C31.8 41.8625 32.5125 41.85 33.2 41.8C37.9125 41.4375 40.25 41.2625 42.0499 41.7625C43.4124 42.1375 42.275 42.075 44.025 42.075V38.45H28.775V42.075H31.15V42.0875ZM20.725 43.925L25.6625 46.6C26.15 46.875 26.6 47.1125 27.075 47.075L29.2 47.1375C28.5875 46.05 28.65 44.6625 29.2999 43.6H20.7375V43.925H20.725ZM53.875 45.3375H50.2125C49.7 45.3375 49.2874 45.75 49.2874 46.2625V58.4625C49.2874 58.975 49.7 59.3875 50.2125 59.3875H53.875C54.375 59.3875 54.7999 58.975 54.7999 58.4625V46.25C54.7999 45.75 54.3875 45.3375 53.875 45.3375ZM47.7999 57.5125V47.5625C47.3125 47.5625 46.9874 47.625 46.6749 47.2875C46.45 47.05 46.25 46.85 46.0625 46.65C44.3499 44.8875 43.1999 43.6375 41.6624 43.2C39.8749 42.7 36.6 43.0375 32.3125 43.3625C30.575 43.4875 29.8875 45.15 30.45 46.3C30.6625 46.7375 31.0625 47.075 31.6749 47.2L37.9749 47.4125C38.3874 47.425 38.7125 47.7625 38.7 48.175C38.6875 48.5875 38.3375 48.9125 37.9249 48.9C35.9749 48.85 34.025 48.7875 32.075 48.7375C31.875 48.725 31.6875 48.7125 31.5 48.6875L27.1625 48.5375C26.275 48.6 25.6375 48.2625 24.95 47.8875L15.675 42.875C13.85 41.8875 11.875 42.55 11.8125 43.475C11.7875 43.8 11.9875 44.2125 12.5 44.6625C28 58.525 28.9749 58.475 40.4749 57.8375C42.5249 57.725 44.9124 57.5875 47.7999 57.5125Z" fill="black"/>
</svg>
