<svg width="64" height="64" viewBox="0 0 64 64" fill="none" xmlns="http://www.w3.org/2000/svg">
<path d="M52.3135 1.6H16.4416C11.6672 1.6 7.77595 5.4336 7.77595 10.1504V12.0576H5.87515C4.30075 12.0576 3.02075 13.3312 3.02075 14.9056C3.02075 16.48 4.30075 17.7536 5.87515 17.7536H7.77595V29.152H5.87515C4.30075 29.152 3.02075 30.4256 3.02075 32C3.02075 33.5744 4.30075 34.848 5.87515 34.848H7.77595V46.2464H5.87515C4.30075 46.2464 3.02075 47.52 3.02075 49.0944C3.02075 50.6688 4.30075 51.9424 5.87515 51.9424H7.77595V53.8496C7.77595 58.5664 11.6672 62.4 16.4416 62.4H52.3135C57.0879 62.4 60.9791 58.5664 60.9791 53.8496V10.1504C60.9791 5.4336 57.0879 1.6 52.3135 1.6ZM34.3743 11.0976C39.6159 11.0976 43.8783 15.36 43.8783 20.6016C43.8783 25.8368 39.6159 30.0992 34.3743 30.0992C29.1392 30.0992 24.8768 25.8368 24.8768 20.6016C24.8768 15.36 29.1392 11.0976 34.3743 11.0976ZM43.8783 52.9024H24.8768C21.7344 52.9024 19.1744 50.3424 19.1744 47.2C19.1744 38.816 25.9967 32 34.3743 32C42.7584 32 49.5743 38.816 49.5743 47.2C49.5743 50.3424 47.0207 52.9024 43.8783 52.9024Z" fill="black"/>
</svg>
