<svg width="64" height="64" viewBox="0 0 64 64" fill="none" xmlns="http://www.w3.org/2000/svg">
<path d="M50.295 15.391H46.47C45.633 15.391 44.952 16.072 44.952 16.909C44.952 17.746 45.633 18.426 46.47 18.426H50.295C51.132 18.426 51.813 17.745 51.813 16.909C51.813 16.073 51.132 15.391 50.295 15.391Z" fill="black"/>
<path d="M30.66 7.63L29.348 4H27.033C26.3899 4.00265 25.7742 4.26031 25.3208 4.71644C24.8675 5.17257 24.6137 5.78992 24.615 6.433V32.29H42.981C42.974 32.197 42.953 32.107 42.953 32.012C42.9533 31.5421 43.0481 31.0771 43.232 30.6447C43.4158 30.2122 43.6848 29.8212 44.023 29.495C43.365 28.855 42.953 27.965 42.953 26.978C42.953 25.991 43.365 25.1 44.023 24.461C43.365 23.822 42.953 22.931 42.953 21.944C42.953 20.957 43.365 20.066 44.023 19.427C43.6848 19.1008 43.4158 18.7098 43.232 18.2773C43.0481 17.8449 42.9533 17.3799 42.953 16.91C42.9541 15.9773 43.325 15.0831 43.9846 14.4236C44.6441 13.764 45.5383 13.3931 46.471 13.392H47.379V6.434C47.3785 5.78889 47.122 5.17036 46.6658 4.71419C46.2096 4.25803 45.5911 4.00153 44.946 4.001H42.651L41.33 7.633C41.186 8.028 40.81 8.291 40.39 8.291H31.6C31.3945 8.29091 31.194 8.22751 31.0258 8.10941C30.8576 7.99132 30.7299 7.82327 30.66 7.63ZM34.256 14.971C34.609 14.335 35.652 14.335 36.004 14.971L42.584 26.819C42.6 26.849 42.6 26.881 42.614 26.912C42.634 26.959 42.646 27.006 42.66 27.055C42.68 27.133 42.696 27.208 42.698 27.287C42.699 27.335 42.692 27.38 42.686 27.428C42.6774 27.5084 42.6586 27.5874 42.63 27.663C42.622 27.684 42.624 27.706 42.615 27.727C42.594 27.772 42.563 27.806 42.537 27.846C42.516 27.878 42.5 27.911 42.475 27.941C42.4004 28.0318 42.3104 28.1086 42.209 28.168C42.204 28.171 42.202 28.176 42.197 28.178C42.164 28.196 42.129 28.204 42.095 28.219C42.051 28.238 42.01 28.259 41.964 28.271C41.935 28.279 41.906 28.279 41.876 28.283C41.82 28.293 41.764 28.307 41.707 28.307C41.691 28.307 41.676 28.297 41.66 28.297C41.5569 28.2907 41.4553 28.2684 41.359 28.231C41.336 28.222 41.311 28.226 41.288 28.215L35.132 25.372L28.971 28.215C28.943 28.228 28.913 28.225 28.885 28.235C28.8315 28.2525 28.7766 28.2655 28.721 28.274C28.649 28.2888 28.5755 28.2951 28.502 28.293C28.451 28.291 28.404 28.279 28.353 28.269C28.2746 28.2546 28.1984 28.2304 28.126 28.197C28.106 28.188 28.085 28.189 28.066 28.178C28.038 28.162 28.021 28.136 27.995 28.118C27.879 28.0425 27.7824 27.9407 27.713 27.821C27.692 27.787 27.661 27.764 27.644 27.727C27.632 27.702 27.635 27.675 27.626 27.65C27.6038 27.5857 27.588 27.5194 27.579 27.452C27.57 27.391 27.561 27.333 27.563 27.272C27.5668 27.2061 27.5775 27.1407 27.595 27.077C27.6079 27.0159 27.627 26.9563 27.652 26.899C27.664 26.873 27.663 26.844 27.678 26.819L34.258 14.971H34.256Z" fill="black"/>
<path d="M39.69 6.29L40.522 4H31.474L32.302 6.29H39.69ZM43.746 40.764H27.033C24.597 40.764 22.615 38.775 22.615 36.331V23.807L22.281 23.043C22.0951 22.6215 21.7905 22.2632 21.4045 22.0117C21.0185 21.7603 20.5677 21.6266 20.107 21.627C19.4818 21.6275 18.8823 21.8761 18.4402 22.3182C17.9981 22.7603 17.7495 23.3598 17.749 23.985V27.194C17.749 28.9 17.531 30.709 17.083 32.725C15.754 38.737 15.991 47.113 16.116 49.883H34.738C35.664 47.429 37.877 45.276 41.218 43.627C42.488 43.004 43.33 42.041 43.746 40.764Z" fill="black"/>
<path d="M47.378 36.331V35.53H46.47C45.9636 35.5284 45.4635 35.4166 45.0046 35.2025C44.5456 34.9884 44.1387 34.677 43.812 34.29H24.614V36.331C24.6127 36.9741 24.8665 37.5914 25.3199 38.0476C25.7732 38.5037 26.3889 38.7614 27.032 38.764H44.944C46.321 38.743 47.378 37.674 47.378 36.331ZM48.378 33.525C48.387 33.525 48.394 33.53 48.402 33.53H50.295C51.132 33.53 51.813 32.849 51.813 32.012C51.813 31.175 51.132 30.495 50.295 30.495H46.47C45.633 30.495 44.952 31.176 44.952 32.012C44.952 32.848 45.633 33.53 46.47 33.53H48.354C48.363 33.53 48.37 33.525 48.378 33.525ZM35.549 23.363L39.353 25.12L35.13 17.516L30.907 25.119L34.711 23.363C34.8423 23.3023 34.9853 23.2708 35.13 23.2708C35.2747 23.2708 35.4177 23.3023 35.549 23.363ZM35.455 51.884H12.778C12.6213 51.8843 12.4712 51.9466 12.3604 52.0574C12.2496 52.1682 12.1873 52.3183 12.187 52.475V59.409C12.187 59.735 12.452 60 12.778 60H37.619C37.7757 59.9997 37.9258 59.9374 38.0366 59.8266C38.1474 59.7158 38.2097 59.5657 38.21 59.409V52.475C38.2097 52.3183 38.1474 52.1682 38.0366 52.0574C37.9258 51.9466 37.7757 51.8843 37.619 51.884H35.455ZM50.295 25.46H46.47C45.633 25.46 44.952 26.141 44.952 26.978C44.952 27.815 45.633 28.496 46.47 28.496H50.295C51.132 28.496 51.813 27.815 51.813 26.978C51.813 26.141 51.132 25.46 50.295 25.46ZM50.295 20.425H46.47C45.633 20.425 44.952 21.106 44.952 21.943C44.952 22.78 45.633 23.46 46.47 23.46H50.295C51.132 23.46 51.813 22.779 51.813 21.943C51.813 21.107 51.132 20.425 50.295 20.425Z" fill="black"/>
</svg>
