<svg width="24" height="24" viewBox="0 0 24 24" fill="none" xmlns="http://www.w3.org/2000/svg">
<path d="M10.9701 13.0485C14.1591 13.0485 16.7444 10.4633 16.7444 7.27425C16.7444 4.08522 14.1591 1.5 10.9701 1.5C7.78108 1.5 5.19586 4.08522 5.19586 7.27425C5.19586 10.4633 7.78108 13.0485 10.9701 13.0485Z" fill="#191919"/>
<path d="M16.9671 16.632L13.7024 19.89C13.621 19.9679 13.5682 20.0709 13.5524 20.1825L13.2674 21.8625C13.1999 22.23 13.5224 22.5525 13.8974 22.4925L15.5699 22.2075C15.6824 22.1925 15.7874 22.14 15.8699 22.0575L19.1346 18.7995L16.9671 16.632ZM20.6624 15.0975C20.0624 14.4975 19.0949 14.4975 18.4949 15.0975L17.9204 15.6757L20.0879 17.8432L20.6624 17.265C21.2549 16.665 21.2549 15.6975 20.6624 15.0975ZM10.9701 14.3977C9.68287 14.3969 8.42025 14.0448 7.31838 13.3792C4.74738 14.232 2.89038 16.6522 2.89038 19.509V20.4322C2.89038 21.1207 3.37338 21.714 4.04913 21.843C5.97888 22.2127 8.31588 22.5 10.9701 22.5C11.3189 22.5 11.6459 22.4827 11.9834 22.4737C11.9029 22.1952 11.888 21.9018 11.9399 21.6165L12.2211 19.9575C12.2661 19.605 12.4499 19.2345 12.7446 18.9382L16.4774 15.213L16.9416 14.7457C16.2704 14.1339 15.4784 13.6697 14.6166 13.383C13.5159 14.0462 12.2552 14.397 10.9701 14.3977Z" fill="#191919"/>
</svg>
