<svg width="24" height="24" viewBox="0 0 24 24" fill="none" xmlns="http://www.w3.org/2000/svg">
<path d="M19.6744 19.6744L4.32467 4.32516L4.32139 4.32141C4.23829 4.23898 4.13977 4.17373 4.03145 4.12938C3.92313 4.08504 3.80714 4.06246 3.69009 4.06293C3.57305 4.06341 3.45724 4.08694 3.34929 4.13218C3.24134 4.17741 3.14335 4.24346 3.06092 4.32656C2.9785 4.40967 2.91325 4.50819 2.8689 4.61651C2.82455 4.72483 2.80197 4.84082 2.80245 4.95787C2.80342 5.19425 2.89825 5.42057 3.06608 5.58703L4.40999 6.93094C2.78019 8.04715 1.37735 9.46289 0.276081 11.1028C0.0962444 11.3683 0.00012207 11.6817 0.00012207 12.0023C0.00012207 12.323 0.0962444 12.6364 0.276081 12.9019C3.08717 17.0625 7.54358 19.5 12 19.4695C13.4435 19.4748 14.8774 19.2345 16.2403 18.7589L18.4158 20.9344C18.5834 21.0966 18.8079 21.1866 19.0412 21.185C19.2744 21.1834 19.4977 21.0904 19.6631 20.9259C19.8285 20.7614 19.9228 20.5386 19.9257 20.3054C19.9286 20.0722 19.8398 19.8471 19.6786 19.6786L19.6744 19.6744ZM12 17.0503C11.1557 17.05 10.3249 16.8381 9.58359 16.434C8.84228 16.0298 8.21407 15.4463 7.75638 14.7368C7.29869 14.0273 7.02611 13.2145 6.96355 12.3725C6.90099 11.5305 7.05045 10.6862 7.39827 9.91688L8.80217 11.3208C8.68909 11.8537 8.71094 12.4063 8.86574 12.9286C9.02054 13.4509 9.30338 13.9262 9.68857 14.3114C10.0738 14.6966 10.5491 14.9794 11.0714 15.1342C11.5937 15.289 12.1463 15.3109 12.6792 15.1978L14.0831 16.6017C13.4288 16.8984 12.7184 17.0514 12 17.0503ZM23.7239 11.1005C20.9128 6.9375 16.4564 4.5 12 4.53047C10.5565 4.52524 9.1226 4.76554 7.75967 5.2411L9.91592 7.39735C10.8516 6.97392 11.8941 6.8457 12.9045 7.02978C13.9148 7.21386 14.8451 7.7015 15.5713 8.42771C16.2975 9.15392 16.7852 10.0842 16.9693 11.0946C17.1534 12.105 17.0251 13.1475 16.6017 14.0831L19.5895 17.0709C21.2196 15.9549 22.6226 14.5391 23.7239 12.8991C23.9036 12.6336 23.9997 12.3204 23.9997 11.9998C23.9997 11.6792 23.9036 11.3659 23.7239 11.1005Z" fill="#191919"/>
<path d="M12.0001 8.73094C11.7719 8.73097 11.5442 8.75485 11.3209 8.80219L15.198 12.6788C15.299 12.2025 15.2925 11.7096 15.1787 11.2362C15.0649 10.7627 14.8468 10.3207 14.5404 9.94235C14.2339 9.564 13.8468 9.25889 13.4073 9.0493C12.9678 8.83971 12.487 8.73094 12.0001 8.73094Z" fill="#191919"/>
</svg>
