<svg width="24" height="24" viewBox="0 0 24 24" fill="none" xmlns="http://www.w3.org/2000/svg">
<g clip-path="url(#clip0_35_4467)">
<path d="M16.9219 23.2969C16.9219 23.6855 16.6074 24 16.2188 24H7.78125C7.39261 24 7.07812 23.6855 7.07812 23.2969C7.07812 20.5832 9.28636 18.375 12 18.375C14.7136 18.375 16.9219 20.5832 16.9219 23.2969ZM12 18.375C10.4489 18.375 9.1875 17.1136 9.1875 15.5625C9.1875 14.0114 10.4489 12.75 12 12.75C13.5511 12.75 14.8125 14.0114 14.8125 15.5625C14.8125 17.1136 13.5511 18.375 12 18.375ZM8.24536 18.2203C6.86719 19.2328 5.91094 20.8078 5.71411 22.5938H0.703125C0.309328 22.5938 0 22.2844 0 21.8906C0 19.1766 2.25469 16.9688 4.96875 16.9688C6.20625 16.9688 7.35938 17.4329 8.24536 18.2203ZM4.96875 16.9688C3.41761 16.9688 2.15625 15.7074 2.15625 14.1562C2.15625 12.6051 3.41761 11.3438 4.96875 11.3438C6.51989 11.3438 7.78125 12.6051 7.78125 14.1562C7.78125 15.7074 6.51989 16.9688 4.96875 16.9688ZM24 21.8906C24 22.2844 23.6907 22.5938 23.2969 22.5938H18.2859C18.0891 20.8078 17.1329 19.2328 15.7546 18.2203C16.6406 17.4329 17.7938 16.9688 19.0312 16.9688C21.7453 16.9688 24 19.1766 24 21.8906ZM19.0312 16.9688C17.4801 16.9688 16.2188 15.7074 16.2188 14.1562C16.2188 12.6051 17.4801 11.3438 19.0312 11.3438C20.5824 11.3438 21.8438 12.6051 21.8438 14.1562C21.8438 15.7074 20.5824 16.9688 19.0312 16.9688ZM20.4375 0H3.5625C3.16875 0 2.85938 0.309375 2.85938 0.703125V9.23438C2.85938 9.62813 3.16875 9.9375 3.5625 9.9375H5.67188V9.99656C6.62531 10.1569 7.47141 10.6383 8.09437 11.3259L9.48281 9.9375H14.5172L15.9056 11.3259C16.5286 10.6383 17.3747 10.1569 18.3281 9.99656V9.9375H20.4375C20.8312 9.9375 21.1406 9.62813 21.1406 9.23438V0.703125C21.1406 0.309375 20.8312 0 20.4375 0ZM6.375 2.90625C6.76875 2.90625 7.07812 3.21563 7.07812 3.60938C7.07812 4.00313 6.76875 4.3125 6.375 4.3125C5.98125 4.3125 5.67188 4.00313 5.67188 3.60938C5.67188 3.21563 5.98125 2.90625 6.375 2.90625ZM14.8125 7.125H6.375C5.98125 7.125 5.67188 6.81563 5.67188 6.42188C5.67188 6.02812 5.98125 5.71875 6.375 5.71875H14.8125C15.2063 5.71875 15.5156 6.02812 15.5156 6.42188C15.5156 6.81563 15.2063 7.125 14.8125 7.125ZM17.625 7.125C17.2313 7.125 16.9219 6.81563 16.9219 6.42188C16.9219 6.02812 17.2313 5.71875 17.625 5.71875C18.0187 5.71875 18.3281 6.02812 18.3281 6.42188C18.3281 6.81563 18.0187 7.125 17.625 7.125ZM17.625 4.3125H9.1875C8.79375 4.3125 8.48438 4.00313 8.48438 3.60938C8.48438 3.21563 8.79375 2.90625 9.1875 2.90625H17.625C18.0187 2.90625 18.3281 3.21563 18.3281 3.60938C18.3281 4.00313 18.0187 4.3125 17.625 4.3125Z" fill="#191919"/>
</g>
<defs>
<clipPath id="clip0_35_4467">
<rect width="24" height="24" fill="white"/>
</clipPath>
</defs>
</svg>
