<svg width="64" height="64" viewBox="0 0 64 64" fill="none" xmlns="http://www.w3.org/2000/svg">
<path d="M63.4506 42.8491L57.3867 36.7846L44.8423 49.3291C42.603 51.5684 39.7925 53.0284 36.7397 53.5747L44.7324 61.5674C45.4644 62.2999 46.6519 62.2999 47.3838 61.5674L63.4506 45.501C64.1831 44.7685 64.1831 43.581 63.4506 42.8491ZM54.9165 33.9516C57.0303 31.8384 57.0308 28.3994 54.9194 26.2846L54.9121 26.2774C54.3991 25.7631 53.7878 25.3572 53.1147 25.084C53.691 23.6265 53.8125 21.1616 51.9038 19.2525C51.8989 19.2475 51.894 19.2421 51.8887 19.2372C51.3777 18.7281 50.7703 18.3261 50.102 18.0547C50.6782 16.5981 50.8002 14.1327 48.8926 12.2246L48.8891 12.2212C48.3662 11.6982 47.7554 11.295 47.0899 11.0259C47.6661 9.56836 47.7876 7.10298 45.8789 5.19386C45.8784 5.19386 45.8784 5.19336 45.8779 5.19336L45.8765 5.19186C43.7617 3.07711 40.3213 3.07711 38.2065 5.19186L34.6514 8.74661L36.4692 10.5645C39.4985 13.5937 39.4985 18.5225 36.4697 21.5517C35.4502 22.5707 34.1978 23.271 32.8325 23.6045C32.496 24.9795 31.7879 26.2356 30.7856 27.2354C29.7676 28.2534 28.5171 28.9531 27.1534 29.2871C26.8199 30.6504 26.1196 31.9014 25.1021 32.919C24.084 33.937 22.8335 34.6367 21.4696 34.9707C21.1362 36.334 20.436 37.585 19.4184 38.603C17.9511 40.0699 16 40.8784 13.9248 40.8784C11.8496 40.8784 9.8985 40.0702 8.43112 38.6025L6.61325 36.7846L0.549375 42.8491C-0.183125 43.5816 -0.183125 44.7685 0.549375 45.501L16.6156 61.5674C17.3481 62.2999 18.5351 62.2994 19.2676 61.5674L30.7685 50.0669H34.0088C37.0996 50.0669 40.0054 48.8627 42.1909 46.6777L54.9165 33.9516Z" fill="black"/>
<path d="M11.0829 35.9512C12.6523 37.5209 15.1971 37.5209 16.7665 35.9512C18.3363 34.3818 18.3363 31.8374 16.7665 30.2674C18.3363 31.8374 20.8808 31.8374 22.4505 30.2674C24.0199 28.6982 24.0199 26.1533 22.4505 24.5839C24.0199 26.1533 26.5649 26.1533 28.1343 24.5839C29.7035 23.0145 29.7035 20.4697 28.1343 18.9003C29.7035 20.4697 32.2484 20.4697 33.8178 18.9003C35.3876 17.3305 35.3876 14.786 33.8178 13.2162L25.804 5.20254C24.2348 3.63316 21.6899 3.63316 20.1205 5.20254C18.5511 6.77191 18.5511 9.31679 20.1205 10.8862L21.1244 11.8905C19.555 10.3207 17.0101 10.3207 15.4408 11.8905C13.8715 13.4599 13.8715 16.0048 15.4408 17.5742L17.4491 19.5824C15.8798 18.013 13.3349 18.013 11.7655 19.5824C10.1956 21.1518 10.1956 23.6967 11.7655 25.266L13.7738 27.2748C12.204 25.705 9.6595 25.705 8.08975 27.2748C6.52038 28.8442 6.52038 31.3885 8.08975 32.9584L11.0829 35.9512ZM35.5546 2.53991C35.8302 2.26549 36.1227 2.00865 36.4305 1.77091L35.3339 0.674286C35.0556 0.396052 34.6969 0.212382 34.3085 0.149277C33.9202 0.0861716 33.5218 0.146829 33.1698 0.322661L28.5419 2.63666L31.9999 6.09516L35.5546 2.53991Z" fill="black"/>
</svg>
