<svg width="64" height="64" viewBox="0 0 64 64" fill="none" xmlns="http://www.w3.org/2000/svg">
<path d="M22.25 52.25H41.75V55.25H22.25V52.25ZM22.25 47.75H41.75V50.75H22.25V47.75ZM26 59.75H38C38.8641 59.7487 39.7013 59.4496 40.3707 58.9032C41.0401 58.3568 41.5007 57.5963 41.675 56.75H22.325C22.4993 57.5963 22.9599 58.3568 23.6293 58.9032C24.2987 59.4496 25.1359 59.7487 26 59.75ZM42 55.25H41.75V56C41.7501 56.2519 41.7249 56.5031 41.675 56.75H42C42.1989 56.75 42.3897 56.671 42.5303 56.5303C42.671 56.3897 42.75 56.1989 42.75 56C42.75 55.8011 42.671 55.6103 42.5303 55.4697C42.3897 55.329 42.1989 55.25 42 55.25ZM22.25 55.25H22C21.8011 55.25 21.6103 55.329 21.4697 55.4697C21.329 55.6103 21.25 55.8011 21.25 56C21.25 56.1989 21.329 56.3897 21.4697 56.5303C21.6103 56.671 21.8011 56.75 22 56.75H22.325C22.2751 56.5031 22.2499 56.2519 22.25 56V55.25ZM22 50.75C21.8011 50.75 21.6103 50.829 21.4697 50.9697C21.329 51.1103 21.25 51.3011 21.25 51.5C21.25 51.6989 21.329 51.8897 21.4697 52.0303C21.6103 52.171 21.8011 52.25 22 52.25H22.25V50.75H22ZM42 52.25C42.1989 52.25 42.3897 52.171 42.5303 52.0303C42.671 51.8897 42.75 51.6989 42.75 51.5C42.75 51.3011 42.671 51.1103 42.5303 50.9697C42.3897 50.829 42.1989 50.75 42 50.75H41.75V52.25H42ZM24.75 31C24.75 31.862 25.0924 32.6886 25.7019 33.2981C26.3114 33.9076 27.138 34.25 28 34.25C28.8619 34.25 29.6886 33.9076 30.2981 33.2981C30.9076 32.6886 31.25 31.862 31.25 31V29C30.6016 29.4881 29.8116 29.7515 29 29.75C28.8011 29.75 28.6103 29.671 28.4697 29.5303C28.329 29.3897 28.25 29.1989 28.25 29C28.25 28.8011 28.329 28.6103 28.4697 28.4697C28.6103 28.329 28.8011 28.25 29 28.25C29.5965 28.2492 30.1683 28.0119 30.5901 27.5901C31.0119 27.1683 31.2492 26.5965 31.25 26V20C30.6016 20.4881 29.8116 20.7515 29 20.75C28.8011 20.75 28.6103 20.671 28.4697 20.5303C28.329 20.3897 28.25 20.1989 28.25 20C28.25 19.8011 28.329 19.6103 28.4697 19.4697C28.6103 19.329 28.8011 19.25 29 19.25C29.5965 19.2492 30.1683 19.0119 30.5901 18.5901C31.0119 18.1683 31.2492 17.5965 31.25 17V12C31.2488 11.2828 31.0105 10.5861 30.5722 10.0185C30.1339 9.4508 29.5202 9.044 28.8266 8.86143C28.133 8.67885 27.3986 8.73074 26.7376 9.00902C26.0766 9.2873 25.5261 9.77634 25.172 10.4C26.1938 10.6619 27.0996 11.2558 27.7472 12.0884C28.3949 12.921 28.7476 13.9452 28.75 15C28.75 15.1989 28.671 15.3897 28.5303 15.5303C28.3897 15.671 28.1989 15.75 28 15.75C27.8011 15.75 27.6103 15.671 27.4697 15.5303C27.329 15.3897 27.25 15.1989 27.25 15C27.2503 14.4923 27.1316 13.9915 26.9035 13.5379C26.6754 13.0842 26.3442 12.6904 25.9364 12.3879C25.5286 12.0853 25.0556 11.8826 24.5553 11.7958C24.0551 11.709 23.5414 11.7407 23.0556 11.8882C22.5697 12.0358 22.1252 12.2951 21.7577 12.6454C21.3901 12.9958 21.1098 13.4273 20.9391 13.9055C20.7684 14.3837 20.7122 14.8953 20.7748 15.3991C20.8375 15.903 21.0174 16.3852 21.3 16.807C21.3639 16.9021 21.4051 17.0107 21.4205 17.1242C21.4359 17.2378 21.4251 17.3533 21.3889 17.4621C21.3527 17.5708 21.292 17.6698 21.2116 17.7514C21.1312 17.833 21.0332 17.8952 20.925 17.933C20.3797 18.1245 19.8952 18.4579 19.5216 18.8988C19.148 19.3398 18.8987 19.8724 18.7993 20.4417C18.7 21.0111 18.7543 21.5966 18.9565 22.1381C19.1588 22.6795 19.5017 23.1572 19.95 23.522C20.3742 22.8284 20.9694 22.2553 21.6785 21.8575C22.3876 21.4597 23.1869 21.2505 24 21.25C24.1989 21.25 24.3897 21.329 24.5303 21.4697C24.671 21.6103 24.75 21.8011 24.75 22C24.75 22.1989 24.671 22.3897 24.5303 22.5303C24.3897 22.671 24.1989 22.75 24 22.75C23.138 22.75 22.3114 23.0924 21.7019 23.7019C21.0924 24.3114 20.75 25.138 20.75 26C20.75 26.862 21.0924 27.6886 21.7019 28.2981C22.3114 28.9076 23.138 29.25 24 29.25H24.109C24.2248 29.2491 24.3393 29.2742 24.4442 29.3233C24.549 29.3725 24.6416 29.4444 24.715 29.534C24.7868 29.6252 24.8366 29.7318 24.8605 29.8454C24.8845 29.959 24.8819 30.0766 24.853 30.189C24.7842 30.4538 24.7496 30.7264 24.75 31ZM33.25 34.871C32.7534 34.5174 32.3291 34.0721 32 33.559C31.6709 34.0721 31.2466 34.5174 30.75 34.871V46.25H33.25V34.871ZM35 29.75C34.1884 29.7515 33.3984 29.4881 32.75 29V31C32.75 31.862 33.0924 32.6886 33.7019 33.2981C34.3114 33.9076 35.138 34.25 36 34.25C36.8619 34.25 37.6886 33.9076 38.2981 33.2981C38.9076 32.6886 39.25 31.862 39.25 31C39.2515 30.7258 39.2179 30.4526 39.15 30.187C39.1207 30.0746 39.1179 29.9569 39.1418 29.8433C39.1657 29.7296 39.2157 29.6231 39.2879 29.532C39.36 29.441 39.4523 29.3679 39.5575 29.3186C39.6627 29.2694 39.7779 29.2452 39.894 29.248H40.003C40.8649 29.248 41.6916 28.9056 42.3011 28.2961C42.9106 27.6866 43.253 26.86 43.253 25.998C43.253 25.136 42.9106 24.3094 42.3011 23.6999C41.6916 23.0904 40.8649 22.748 40.003 22.748C39.8041 22.748 39.6133 22.669 39.4727 22.5283C39.332 22.3877 39.253 22.1969 39.253 21.998C39.253 21.7991 39.332 21.6083 39.4727 21.4677C39.6133 21.327 39.8041 21.248 40.003 21.248C40.8162 21.2483 41.6158 21.4574 42.3251 21.8552C43.0343 22.253 43.6297 22.8263 44.054 23.52C44.5023 23.1552 44.8452 22.6775 45.0475 22.1361C45.2497 21.5946 45.304 21.0091 45.2046 20.4397C45.1053 19.8704 44.856 19.3378 44.4824 18.8968C44.1087 18.4559 43.6243 18.1225 43.079 17.931C42.9708 17.8932 42.8728 17.831 42.7923 17.7494C42.7119 17.6678 42.6513 17.5688 42.6151 17.4601C42.5789 17.3513 42.5681 17.2358 42.5835 17.1222C42.5989 17.0087 42.6401 16.9001 42.704 16.805C42.9854 16.3829 43.1641 15.9009 43.2258 15.3974C43.2876 14.8939 43.2306 14.3829 43.0594 13.9054C42.8882 13.4278 42.6077 12.997 42.2401 12.6474C41.8726 12.2977 41.4283 12.0389 40.9429 11.8918C40.4574 11.7446 39.9442 11.7131 39.4444 11.7998C38.9446 11.8865 38.472 12.089 38.0645 12.3911C37.657 12.6932 37.3259 13.0865 37.0976 13.5395C36.8693 13.9926 36.7503 14.4927 36.75 15C36.75 15.1989 36.671 15.3897 36.5303 15.5303C36.3897 15.671 36.1989 15.75 36 15.75C35.8011 15.75 35.6103 15.671 35.4697 15.5303C35.329 15.3897 35.25 15.1989 35.25 15C35.2523 13.945 35.6051 12.9207 36.2529 12.088C36.9008 11.2554 37.8069 10.6616 38.829 10.4C38.4746 9.77662 37.924 9.28788 37.263 9.0098C36.6021 8.73173 35.8677 8.67992 35.1742 8.86244C34.4808 9.04497 33.8671 9.45158 33.4286 10.019C32.9902 10.5865 32.7516 11.2829 32.75 12V17C32.7508 17.5965 32.9881 18.1683 33.4099 18.5901C33.8317 19.0119 34.4035 19.2492 35 19.25C35.1989 19.25 35.3897 19.329 35.5303 19.4697C35.671 19.6103 35.75 19.8011 35.75 20C35.75 20.1989 35.671 20.3897 35.5303 20.5303C35.3897 20.671 35.1989 20.75 35 20.75C34.1884 20.7515 33.3984 20.4881 32.75 20V26C32.7508 26.5965 32.9881 27.1683 33.4099 27.5901C33.8317 28.0119 34.4035 28.2492 35 28.25C35.1989 28.25 35.3897 28.329 35.5303 28.4697C35.671 28.6103 35.75 28.8011 35.75 29C35.75 29.1989 35.671 29.3897 35.5303 29.5303C35.3897 29.671 35.1989 29.75 35 29.75Z" fill="black"/>
<path d="M32 0.25C26.4987 0.256352 21.2246 2.44455 17.3346 6.33455C13.4446 10.2246 11.2564 15.4987 11.25 21C11.2328 25.6543 12.7973 30.1764 15.687 33.825C17.9774 36.7237 19.2317 40.3057 19.25 44C19.25 44.5967 19.4871 45.169 19.909 45.591C20.331 46.0129 20.9033 46.25 21.5 46.25H29.25V35.583C28.5453 35.775 27.8059 35.802 27.0891 35.6618C26.3723 35.5216 25.6975 35.218 25.1171 34.7747C24.5367 34.3314 24.0663 33.7602 23.7425 33.1055C23.4187 32.4509 23.2502 31.7304 23.25 31C23.25 30.9 23.25 30.8 23.26 30.692C22.1429 30.5144 21.1257 29.9445 20.3908 29.0846C19.6559 28.2247 19.2514 27.1311 19.25 26C19.2496 25.6474 19.2888 25.2958 19.367 24.952C18.6935 24.5036 18.1457 23.8904 17.7756 23.1708C17.4056 22.4512 17.2255 21.649 17.2526 20.8403C17.2796 20.0315 17.5129 19.2431 17.9302 18.5499C18.3475 17.8566 18.935 17.2814 19.637 16.879C19.3402 16.1894 19.2111 15.4393 19.2602 14.6902C19.3093 13.941 19.5352 13.2142 19.9195 12.5692C20.3037 11.9243 20.8353 11.3795 21.4708 10.9797C22.1062 10.5799 22.8273 10.3363 23.575 10.269C23.8943 9.45306 24.4331 8.74135 25.1318 8.21258C25.8305 7.68381 26.6618 7.35859 27.5338 7.27289C28.4058 7.18719 29.2845 7.34435 30.0727 7.72699C30.8609 8.10963 31.528 8.70284 32 9.441C32.4722 8.70289 33.1394 8.10974 33.9277 7.72715C34.716 7.34455 35.5947 7.18742 36.4667 7.27311C37.3388 7.3588 38.1701 7.68399 38.8689 8.21271C39.5676 8.74143 40.1065 9.45309 40.426 10.269C41.1737 10.3365 41.8947 10.5801 42.53 10.98C43.1652 11.3799 43.6967 11.9246 44.0809 12.5696C44.465 13.2145 44.6909 13.9413 44.7399 14.6904C44.7889 15.4395 44.6598 16.1895 44.363 16.879C45.065 17.2814 45.6526 17.8566 46.0699 18.5499C46.4872 19.2431 46.7204 20.0315 46.7475 20.8403C46.7745 21.649 46.5945 22.4512 46.2244 23.1708C45.8544 23.8904 45.3066 24.5036 44.633 24.952C44.7112 25.2958 44.7505 25.6474 44.75 26C44.7486 27.1311 44.3442 28.2247 43.6093 29.0846C42.8744 29.9445 41.8571 30.5144 40.74 30.692C40.747 30.792 40.75 30.892 40.75 31C40.7499 31.7304 40.5814 32.4509 40.2575 33.1055C39.9337 33.7602 39.4633 34.3314 38.8829 34.7747C38.3025 35.218 37.6277 35.5216 36.9109 35.6618C36.1941 35.802 35.4547 35.775 34.75 35.583V46.25H42.5C43.0968 46.25 43.6691 46.0129 44.091 45.591C44.513 45.169 44.75 44.5967 44.75 44C44.7685 40.3058 46.0224 36.7241 48.312 33.825C51.2025 30.1767 52.7674 25.6545 52.75 21C52.7437 15.4987 50.5555 10.2246 46.6655 6.33455C42.7755 2.44455 37.5013 0.256352 32 0.25Z" fill="black"/>
<path d="M62 20.25H56C55.5858 20.25 55.25 20.5858 55.25 21C55.25 21.4142 55.5858 21.75 56 21.75H62C62.4142 21.75 62.75 21.4142 62.75 21C62.75 20.5858 62.4142 20.25 62 20.25Z" fill="black"/>
<path d="M8 20.25H2C1.58579 20.25 1.25 20.5858 1.25 21C1.25 21.4142 1.58579 21.75 2 21.75H8C8.41421 21.75 8.75 21.4142 8.75 21C8.75 20.5858 8.41421 20.25 8 20.25Z" fill="black"/>
<path d="M59.9349 10.0409L54.2977 12.0927C53.9084 12.2344 53.7077 12.6647 53.8494 13.054C53.9911 13.4432 54.4215 13.6439 54.8107 13.5022L60.4479 11.4505C60.8371 11.3088 61.0378 10.8784 60.8962 10.4892C60.7545 10.0999 60.3241 9.89925 59.9349 10.0409Z" fill="black"/>
<path d="M9.18912 28.5058L3.55096 30.558C3.16173 30.6996 2.96104 31.13 3.10271 31.5193C3.24438 31.9085 3.67476 32.1092 4.06399 31.9675L9.70215 29.9154C10.0914 29.7737 10.2921 29.3433 10.1504 28.9541C10.0087 28.5649 9.57835 28.3642 9.18912 28.5058Z" fill="black"/>
<path d="M54.4879 1.11774L49.8917 4.97447C49.5744 5.24072 49.533 5.71379 49.7992 6.03109C50.0655 6.3484 50.5385 6.38979 50.8559 6.12353L55.4521 2.26681C55.7694 2.00056 55.8108 1.52749 55.5446 1.21018C55.2783 0.892878 54.8052 0.85149 54.4879 1.11774Z" fill="black"/>
<path d="M13.1474 35.8374L8.5511 39.6941C8.23379 39.9604 8.1924 40.4335 8.45865 40.7508C8.7249 41.0681 9.19797 41.1095 9.51528 40.8432L14.1115 36.9865C14.4289 36.7202 14.4702 36.2472 14.204 35.9299C13.9377 35.6126 13.4647 35.5712 13.1474 35.8374Z" fill="black"/>
<path d="M54.7985 28.4726C54.4093 28.3309 53.9789 28.5316 53.8372 28.9208C53.6955 29.3101 53.8962 29.7405 54.2855 29.8821L59.9227 31.9339C60.3119 32.0756 60.7423 31.8749 60.884 31.4857C61.0256 31.0964 60.8249 30.666 60.4357 30.5244L54.7985 28.4726Z" fill="black"/>
<path d="M4.06716 10.0297C3.67793 9.88805 3.24755 10.0887 3.10588 10.478C2.96421 10.8672 3.1649 11.2976 3.55413 11.4393L9.19229 13.4914C9.58152 13.633 10.0119 13.4324 10.1536 13.0431C10.2952 12.6539 10.0946 12.2235 9.70532 12.0818L4.06716 10.0297Z" fill="black"/>
<path d="M50.879 35.8695C50.5618 35.6032 50.0887 35.6444 49.8224 35.9616C49.556 36.2788 49.5972 36.7519 49.9145 37.0183L54.5094 40.8766C54.8266 41.143 55.2997 41.1017 55.566 40.7845C55.8324 40.4673 55.7912 39.9942 55.474 39.7279L50.879 35.8695Z" fill="black"/>
<path d="M9.50513 1.14458C9.18792 0.878219 8.71484 0.919442 8.44848 1.23665C8.18212 1.55387 8.22334 2.02695 8.54055 2.29331L13.1355 6.15164C13.4527 6.418 13.9258 6.37678 14.1921 6.05957C14.4585 5.74235 14.4173 5.26927 14.1001 5.00291L9.50513 1.14458Z" fill="black"/>
<path d="M26.291 61.25C26.5899 61.9888 27.1026 62.6214 27.7634 63.0669C28.4243 63.5123 29.2031 63.7502 30 63.75H34C34.797 63.7502 35.5758 63.5123 36.2366 63.0669C36.8974 62.6214 37.4102 61.9888 37.709 61.25H26.291Z" fill="black"/>
</svg>
