<svg width="24" height="24" viewBox="0 0 24 24" fill="none" xmlns="http://www.w3.org/2000/svg">
<path d="M12.7091 9.81818C11.8091 7.27634 9.39273 5.45456 6.54546 5.45456C2.92909 5.45456 0 8.38365 0 12C0 15.6164 2.92909 18.5455 6.54546 18.5455C9.39273 18.5455 11.8091 16.7236 12.7091 14.1819H17.4545V18.5455H21.8182V14.1819H24V9.81818H12.7091ZM6.54546 14.1818C5.34002 14.1818 4.36362 13.2055 4.36362 12C4.36362 10.7945 5.34002 9.81818 6.54546 9.81818C7.7509 9.81818 8.7273 10.7945 8.7273 12C8.7273 13.2055 7.7509 14.1818 6.54546 14.1818Z" fill="#191919"/>
</svg>
