<svg width="24" height="24" viewBox="0 0 24 24" fill="none" xmlns="http://www.w3.org/2000/svg">
<g clip-path="url(#clip0_12_518)">
<path d="M9.99994 24C11.811 24 13.326 22.7089 13.674 21H6.32592C6.67402 22.7089 8.18902 24 9.99994 24ZM17.5759 14.4959C17.5499 14.4959 17.526 14.4999 17.4999 14.4999C13.0889 14.4999 9.50006 10.9111 9.50006 6.50006C9.50006 4.76695 10.06 3.16608 11.0001 1.85395V0.999938C11.0001 0.446953 10.552 0 9.99994 0C9.44808 0 9 0.446953 9 0.999938V2.08008C5.61291 2.56805 3 5.48109 3 9V11.788C3 13.767 2.133 15.635 0.611953 16.9209C0.419944 17.0851 0.265803 17.2889 0.160157 17.5183C0.05451 17.7477 -0.000130889 17.9973 2.35442e-07 18.2499C2.35442e-07 19.2151 0.784969 20.0001 1.74994 20.0001H18.2499C19.2151 20.0001 20.0001 19.2151 20.0001 18.2499C20.0001 17.738 19.777 17.254 19.378 16.9131C18.59 16.246 17.9821 15.416 17.5759 14.4959Z" fill="black"/>
<path d="M17.4999 0C13.916 0 11.0001 2.91595 11.0001 6.50006C11.0001 10.084 13.916 12.9999 17.4999 12.9999C21.084 12.9999 24 10.084 24 6.50006C24 2.91595 21.084 0 17.4999 0ZM18.5001 8.75006C18.5001 9.16406 18.1641 9.50006 17.7501 9.50006C17.3361 9.50006 17.0001 9.16406 17.0001 8.75006V5.49994H16.5C16.086 5.49994 15.75 5.16394 15.75 4.74994C15.75 4.33594 16.086 3.99994 16.5 3.99994H17.7501C18.1641 3.99994 18.5001 4.33594 18.5001 4.74994V8.75006Z" fill="black"/>
</g>
<defs>
<clipPath id="clip0_12_518">
<rect width="24" height="24" fill="white"/>
</clipPath>
</defs>
</svg>
