<svg width="24" height="24" viewBox="0 0 24 24" fill="none" xmlns="http://www.w3.org/2000/svg">
<path d="M20.182 4.182C18.8413 4.03926 17.5217 3.74092 16.25 3.293C15.083 2.88057 13.9636 2.34417 12.911 1.693C12.6364 1.52633 12.3213 1.4382 12 1.4382C11.6787 1.4382 11.3636 1.52633 11.089 1.693L11.088 1.694C10.0356 2.34465 8.91657 2.88071 7.75 3.293C6.47891 3.74073 5.16004 4.03907 3.82 4.182C3.38954 4.22584 2.99066 4.42786 2.70062 4.74894C2.41057 5.07002 2.25 5.48731 2.25 5.92V11.115C2.25073 13.032 2.76378 14.914 3.73605 16.5661C4.70832 18.2183 6.10447 19.5806 7.78 20.512L11.15 22.385C11.4095 22.531 11.7023 22.6076 12 22.6076C12.2977 22.6076 12.5905 22.531 12.85 22.385L16.22 20.512C17.8955 19.5806 19.2917 18.2183 20.264 16.5661C21.2362 14.914 21.7493 13.032 21.75 11.115V5.921C21.7505 5.48828 21.5905 5.07075 21.3008 4.7493C21.0111 4.42784 20.6124 4.22633 20.182 4.182ZM15.979 10.184L12.229 14.184C12.0509 14.374 11.8055 14.487 11.5453 14.4987C11.2851 14.5105 11.0306 14.4202 10.836 14.247L8.586 12.247C8.48287 12.1613 8.39805 12.0557 8.33656 11.9365C8.27508 11.8173 8.23819 11.687 8.2281 11.5532C8.21801 11.4195 8.23493 11.2851 8.27783 11.1581C8.32074 11.031 8.38876 10.9139 8.47786 10.8137C8.56696 10.7134 8.6753 10.6321 8.79645 10.5746C8.9176 10.5171 9.04909 10.4846 9.18307 10.4789C9.31706 10.4732 9.45082 10.4946 9.57639 10.5417C9.70196 10.5888 9.81677 10.6606 9.914 10.753L11.437 12.106L14.521 8.816C14.6146 8.71645 14.7275 8.63707 14.8529 8.58273C14.9782 8.5284 15.1134 8.50024 15.25 8.5C15.4451 8.4999 15.6359 8.55686 15.7991 8.66387C15.9622 8.77089 16.0904 8.92328 16.168 9.10227C16.2456 9.28126 16.2692 9.47904 16.2357 9.67125C16.2023 9.86345 16.1124 10.0417 15.979 10.184Z" fill="#191919"/>
</svg>
