<svg width="24" height="24" viewBox="0 0 24 24" fill="none" xmlns="http://www.w3.org/2000/svg">
<path fill-rule="evenodd" clip-rule="evenodd" d="M15.9422 16.0453C15.9284 16.0333 15.9138 16.0223 15.8985 16.0125C15.348 15.6593 15.3392 15.2546 15.371 14.5131C15.4096 13.622 15.4571 12.5132 13.9875 11.463C13.6766 11.2406 13.3314 11.0707 12.9656 10.9601C13.0936 10.7701 13.1616 10.546 13.1609 10.3169C13.159 10.0103 13.0358 9.71687 12.8183 9.50075C12.6008 9.28463 12.3066 9.16333 12 9.16333C11.6934 9.16333 11.3992 9.28463 11.1818 9.50075C10.9643 9.71687 10.8411 10.0103 10.8391 10.3169C10.8384 10.5461 10.9064 10.7702 11.0344 10.9603C10.6685 11.0709 10.3233 11.2408 10.0125 11.4632C8.54288 12.5132 8.59036 13.6222 8.62922 14.5133C8.66077 15.2548 8.65191 15.6595 8.1015 16.0127C8.08616 16.0225 8.07162 16.0334 8.058 16.0455C7.88553 16.1993 7.76073 16.3992 7.69838 16.6217C7.63603 16.8442 7.63875 17.08 7.7062 17.301C7.77366 17.522 7.90303 17.719 8.079 17.8688C8.25497 18.0185 8.47016 18.1147 8.69911 18.146C8.71465 18.1479 8.73032 18.1487 8.74598 18.1483H10.1672C10.2175 18.5992 10.4322 19.0157 10.7703 19.3182C11.1084 19.6207 11.5462 19.7879 11.9998 19.7879C12.4535 19.7879 12.8912 19.6207 13.2294 19.3182C13.5675 19.0157 13.7822 18.5992 13.8325 18.1483H15.2537C15.2695 18.1487 15.2853 18.1479 15.3009 18.146C15.5299 18.1148 15.7452 18.0186 15.9212 17.8688C16.0972 17.7191 16.2267 17.522 16.2941 17.301C16.3616 17.0799 16.3643 16.8442 16.3019 16.6216C16.2396 16.3991 16.1147 16.1991 15.9422 16.0453ZM12 9.85158C12.0923 9.85158 12.1826 9.87898 12.2594 9.93031C12.3361 9.98163 12.3959 10.0546 12.4312 10.1399C12.4665 10.2253 12.4757 10.3191 12.4576 10.4097C12.4395 10.5002 12.3949 10.5834 12.3295 10.6486C12.2642 10.7138 12.1809 10.7582 12.0903 10.776C11.9997 10.7939 11.9059 10.7845 11.8206 10.749C11.7354 10.7135 11.6626 10.6535 11.6114 10.5766C11.5603 10.4997 11.5331 10.4094 11.5334 10.3171C11.5334 10.2558 11.5456 10.1953 11.5691 10.1387C11.5925 10.0822 11.6269 10.0309 11.6703 9.98766C11.7136 9.94444 11.765 9.91018 11.8216 9.88683C11.8782 9.86348 11.9388 9.8515 12 9.85158ZM12 19.0932C11.7308 19.0925 11.4702 18.9976 11.2636 18.825C11.0569 18.6525 10.9171 18.413 10.8684 18.1482H13.1317C13.083 18.413 12.9432 18.6525 12.7365 18.8251C12.5298 18.9977 12.2693 19.0925 12 19.0932ZM15.6298 17.098C15.602 17.1885 15.5497 17.2696 15.4788 17.3324C15.4078 17.3951 15.3209 17.437 15.2277 17.4535H8.77219C8.67901 17.437 8.5922 17.3952 8.5213 17.3325C8.45039 17.2698 8.39816 17.1888 8.37034 17.0984C8.34252 17.0079 8.3402 16.9116 8.36363 16.8199C8.38706 16.7282 8.43533 16.6448 8.50312 16.5788C9.38775 15.9963 9.35311 15.1917 9.3225 14.4829C9.28669 13.6479 9.25256 12.8596 10.4162 12.0269C10.8766 11.6925 11.431 11.5123 12 11.5123C12.569 11.5123 13.1235 11.6925 13.5838 12.0269C14.7477 12.8596 14.7135 13.6479 14.6778 14.4829C14.6469 15.1917 14.6122 15.9963 15.4969 16.5788C15.5644 16.6449 15.6125 16.7283 15.6359 16.8198C15.6593 16.9114 15.6572 17.0076 15.6298 17.098ZM21.9745 21.2755H2.02566C1.48855 21.2751 0.973553 21.0616 0.593756 20.6818C0.21396 20.302 0.000409707 19.787 0 19.2499L0 7.66922H24V19.2499C23.9996 19.787 23.786 20.302 23.4062 20.6818C23.0264 21.0615 22.5115 21.2751 21.9744 21.2755H21.9745ZM24 6.97453H0V4.75008C0.000818288 4.2131 0.214499 3.69835 0.594208 3.31865C0.973916 2.93895 1.48867 2.72528 2.02566 2.72447H21.9743C22.5113 2.72531 23.0261 2.939 23.4058 3.31869C23.7855 3.69838 23.9991 4.21311 24 4.75008V6.97453ZM3.11939 3.78174C2.90818 3.78183 2.70173 3.84456 2.52618 3.962C2.35062 4.07943 2.21384 4.2463 2.13313 4.44148C2.05242 4.63667 2.03141 4.85141 2.07275 5.05853C2.1141 5.26566 2.21595 5.45587 2.36542 5.60511C2.51488 5.75434 2.70525 5.8559 2.91244 5.89693C3.11963 5.93796 3.33434 5.91662 3.5294 5.83561C3.72446 5.7546 3.89111 5.61756 4.00828 5.44182C4.12544 5.26608 4.18786 5.05955 4.18762 4.84833C4.18693 4.56538 4.07411 4.29425 3.87388 4.09432C3.67365 3.8944 3.40234 3.782 3.11939 3.78174ZM3.11939 5.22493C3.19363 5.22511 3.26626 5.20328 3.3281 5.16219C3.38993 5.1211 3.4382 5.06261 3.46679 4.99409C3.49538 4.92558 3.50302 4.85012 3.48873 4.77727C3.47445 4.70441 3.43888 4.63743 3.38653 4.58479C3.33419 4.53214 3.2674 4.4962 3.19463 4.48151C3.12186 4.46682 3.04636 4.47403 2.97769 4.50224C2.90901 4.53044 2.85025 4.57838 2.80881 4.63998C2.76738 4.70159 2.74514 4.77409 2.74491 4.84833C2.74475 4.89765 2.75431 4.94652 2.77304 4.99215C2.79178 5.03778 2.81933 5.07926 2.8541 5.11423C2.88888 5.14921 2.93021 5.17699 2.97573 5.19598C3.02125 5.21497 3.07007 5.22481 3.11939 5.22493ZM5.85117 3.78174C5.63998 3.78193 5.43359 3.84475 5.2581 3.96225C5.08261 4.07975 4.94591 4.24665 4.86528 4.44184C4.78464 4.63703 4.76371 4.85175 4.80511 5.05885C4.84652 5.26594 4.94841 5.4561 5.0979 5.60529C5.24738 5.75447 5.43775 5.85598 5.64493 5.89697C5.8521 5.93795 6.06678 5.91658 6.26181 5.83556C6.45684 5.75453 6.62347 5.61749 6.74061 5.44177C6.85775 5.26604 6.92015 5.05952 6.91992 4.84833C6.91913 4.56536 6.80624 4.29424 6.60597 4.09433C6.4057 3.89442 6.13437 3.78202 5.85141 3.78174H5.85117ZM5.85117 5.22493C5.92541 5.22511 5.99804 5.20328 6.05988 5.16219C6.12171 5.1211 6.16998 5.06261 6.19857 4.99409C6.22716 4.92558 6.2348 4.85012 6.22051 4.77727C6.20623 4.70441 6.17066 4.63743 6.11832 4.58479C6.06597 4.53214 5.99918 4.4962 5.92641 4.48151C5.85364 4.46682 5.77814 4.47403 5.70947 4.50224C5.6408 4.53044 5.58203 4.57838 5.54059 4.63998C5.49916 4.70159 5.47692 4.77409 5.47669 4.84833C5.47646 4.94791 5.51578 5.04351 5.586 5.11413C5.65621 5.18474 5.75159 5.22459 5.85117 5.22493ZM8.58347 3.78174C8.37226 3.78188 8.16585 3.84465 7.99032 3.96211C7.81479 4.07958 7.67805 4.24646 7.59737 4.44165C7.5167 4.63683 7.49572 4.85156 7.5371 5.05868C7.57847 5.26579 7.68034 5.45598 7.82981 5.60519C7.97929 5.7544 8.16965 5.85594 8.37684 5.89695C8.58402 5.93796 8.79872 5.9166 8.99376 5.83559C9.18881 5.75457 9.35545 5.61753 9.4726 5.4418C9.58976 5.26606 9.65217 5.05954 9.65194 4.84833C9.65114 4.56537 9.53826 4.29426 9.338 4.09435C9.13774 3.89444 8.86643 3.78203 8.58347 3.78174ZM8.58347 5.22493C8.65771 5.22511 8.73034 5.20328 8.79217 5.16219C8.85401 5.1211 8.90227 5.06261 8.93087 4.99409C8.95946 4.92558 8.9671 4.85012 8.95281 4.77727C8.93853 4.70441 8.90296 4.63743 8.85061 4.58479C8.79826 4.53214 8.73148 4.4962 8.65871 4.48151C8.58594 4.46682 8.51044 4.47403 8.44177 4.50224C8.37309 4.53044 8.31432 4.57838 8.27289 4.63998C8.23145 4.70159 8.20922 4.77409 8.20898 4.84833C8.20884 4.89765 8.21842 4.94651 8.23716 4.99213C8.2559 5.03774 8.28345 5.07922 8.31822 5.11419C8.353 5.14916 8.39432 5.17694 8.43983 5.19594C8.48534 5.21494 8.53415 5.22479 8.58347 5.22493ZM21.7255 4.84833C21.7251 4.75652 21.6884 4.66861 21.6234 4.60375C21.5584 4.5389 21.4704 4.50238 21.3786 4.50216H14.0099C13.9177 4.50216 13.8294 4.53875 13.7642 4.60389C13.6991 4.66903 13.6625 4.75738 13.6625 4.8495C13.6625 4.94162 13.6991 5.02997 13.7642 5.09511C13.8294 5.16025 13.9177 5.19685 14.0099 5.19685H21.3786C21.4708 5.1965 21.5591 5.15962 21.6241 5.09429C21.6891 5.02895 21.7256 4.94051 21.7255 4.84833Z" fill="#191919"/>
</svg>
