<svg width="24" height="24" viewBox="0 0 24 24" fill="none" xmlns="http://www.w3.org/2000/svg">
<path d="M10.938 1.93134C8.5535 1.93534 6.26783 2.88433 4.58176 4.57041C2.89568 6.25648 1.94669 8.54215 1.94269 10.9266C1.94468 13.3131 2.89255 15.6015 4.57863 17.2904C6.26471 18.9793 8.5515 19.931 10.938 19.937C13.0545 19.937 15.0047 19.1924 16.5468 17.9603L20.2923 21.7058C20.482 21.8823 20.7328 21.9783 20.9918 21.9737C21.2509 21.9692 21.4981 21.8645 21.6816 21.6815C21.865 21.4985 21.9704 21.2516 21.9757 20.9925C21.9809 20.7335 21.8855 20.4825 21.7096 20.2923L17.9641 16.543C19.2433 14.952 19.9407 12.9718 19.9408 10.9304C19.9408 5.97165 15.8967 1.93134 10.938 1.93134ZM10.938 3.93449C14.8158 3.93449 17.9376 7.0526 17.9376 10.9266C17.9376 14.8006 14.8158 17.9376 10.938 17.9376C7.06017 17.9376 3.94206 14.812 3.94206 10.9342C3.94206 7.05638 7.06017 3.93449 10.938 3.93449Z" fill="black"/>
</svg>
