<svg width="24" height="24" viewBox="0 0 24 24" fill="none" xmlns="http://www.w3.org/2000/svg">
<path fill-rule="evenodd" clip-rule="evenodd" d="M2.96175 21.7493C2.76967 21.7394 2.5887 21.6562 2.45624 21.5168C2.32377 21.3773 2.24994 21.1923 2.25 21V20.5012C2.25 19.0687 3.23925 18 4.31325 18H8.43675C9.51075 18 10.5 19.0687 10.5 20.5012V20.994C10.5 21.609 9.9255 21.7268 9.78225 21.7463L9.75 21.75H3L2.96175 21.7493ZM14.2118 21.7493C14.0197 21.7394 13.8387 21.6562 13.7062 21.5168C13.5738 21.3773 13.4999 21.1923 13.5 21V20.5012C13.5 19.0687 14.4892 18 15.5632 18H19.6868C20.7607 18 21.75 19.0687 21.75 20.5012V20.994C21.75 21.609 21.1755 21.7268 21.0322 21.7463L21 21.75H14.25L14.2118 21.7493ZM6.375 11.8065C4.87275 11.8065 3.65325 13.026 3.65325 14.5282C3.65325 16.0305 4.87275 17.25 6.375 17.25C7.87725 17.25 9.09675 16.0305 9.09675 14.5282C9.09675 13.026 7.87725 11.8065 6.375 11.8065ZM17.625 11.8065C16.1228 11.8065 14.9032 13.026 14.9032 14.5282C14.9032 16.0305 16.1228 17.25 17.625 17.25C19.1273 17.25 20.3468 16.0305 20.3468 14.5282C20.3468 13.026 19.1273 11.8065 17.625 11.8065ZM8.58675 11.2492C8.39467 11.2394 8.2137 11.1562 8.08124 11.0168C7.94877 10.8773 7.87494 10.6923 7.875 10.5V10.0013C7.875 8.56875 8.86425 7.5 9.93825 7.5H14.0618C15.1358 7.5 16.125 8.56875 16.125 10.0013V10.494C16.125 11.109 15.5505 11.2268 15.4072 11.2463L15.375 11.25H8.625L8.58675 11.2492ZM12 1.5C10.4978 1.5 9.27825 2.7195 9.27825 4.22175C9.27825 5.724 10.4978 6.9435 12 6.9435C13.5022 6.9435 14.7218 5.724 14.7218 4.22175C14.7218 2.7195 13.5022 1.5 12 1.5Z" fill="black"/>
</svg>
