<svg width="24" height="24" viewBox="0 0 24 24" fill="none" xmlns="http://www.w3.org/2000/svg">
<path d="M16.5 5.25V1.5C16.5987 1.49943 16.6966 1.51835 16.7879 1.55567C16.8793 1.59299 16.9624 1.64799 17.0325 1.7175L22.2825 6.9675C22.352 7.03758 22.407 7.12069 22.4443 7.21207C22.4817 7.30345 22.5006 7.40129 22.5 7.5H18.75C18.1533 7.5 17.581 7.26294 17.159 6.84099C16.7371 6.41903 16.5 5.84673 16.5 5.25ZM6.75 19.11V10.5H5.25C4.25544 10.5 3.30161 10.8951 2.59835 11.5983C1.89509 12.3016 1.5 13.2554 1.5 14.25V19.11C1.5 19.8062 1.77656 20.4739 2.26884 20.9662C2.76113 21.4584 3.42881 21.735 4.125 21.735C4.82119 21.735 5.48887 21.4584 5.98116 20.9662C6.47344 20.4739 6.75 19.8062 6.75 19.11ZM18.75 9H22.5V18.75C22.5 19.7446 22.1049 20.6984 21.4016 21.4016C20.6984 22.1049 19.7446 22.5 18.75 22.5H4.125C5.0195 22.498 5.87679 22.1418 6.5093 21.5093C7.1418 20.8768 7.49802 20.0195 7.5 19.125V5.25C7.5 4.25544 7.89509 3.30161 8.59835 2.59835C9.30161 1.89509 10.2554 1.5 11.25 1.5H15V5.25C15 6.24456 15.3951 7.19839 16.0983 7.90165C16.8016 8.60491 17.7554 9 18.75 9ZM10.5 13.5H15V12H10.5V13.5ZM19.5 15H10.5V16.5H19.5V15Z" fill="#191919"/>
</svg>
