<svg width="64" height="64" viewBox="0 0 64 64" fill="none" xmlns="http://www.w3.org/2000/svg">
<g clip-path="url(#clip0_75_6854)">
<path d="M40.3717 23.2434C61.1937 23.2434 59.6554 23.239 59.976 23.2515C59.7822 22.5089 59.3937 21.8315 58.8506 21.2893L53.142 15.5806C51.9084 14.3469 50.0145 13.9883 48.4288 14.6886C47.5774 15.0649 46.5628 14.875 45.9042 14.2164C45.2456 13.558 45.0559 12.5434 45.4318 11.6919C46.1322 10.1066 45.7738 8.21246 44.5399 6.97864L38.8313 1.26996C37.1392 -0.421895 34.3862 -0.422021 32.6941 1.26996L25.5519 8.41211L40.3717 23.2434ZM22.8899 11.0743L10.7208 23.2434H35.0475C35.0035 23.1993 34.0725 22.2672 22.8899 11.0743ZM61.2979 43.3845C62.9141 42.7588 64 41.1658 64 39.421V31.3478C64 28.955 62.0532 27.0081 59.6603 27.0081H50.8235V63.999H59.6603C62.0532 63.999 64 62.0522 64 59.6593V51.5861C64 49.8414 62.9143 48.2485 61.2981 47.6227C60.4299 47.2863 59.8467 46.4348 59.8467 45.5035C59.8467 44.5722 60.4299 43.7207 61.2979 43.3845ZM0 31.3478V39.421C0 41.1658 1.08587 42.7588 2.70193 43.3843C3.57007 43.7207 4.15322 44.5722 4.15322 45.5035C4.15322 46.4348 3.56995 47.2863 2.7018 47.6227C1.08574 48.2485 0 49.8413 0 51.5861V59.6593C0 62.0522 1.94686 63.999 4.3397 63.999H47.0588V27.0081H4.3397C1.94686 27.0081 0 28.9549 0 31.3478ZM13.1765 35.7637H41.4118V39.5284H13.1765V35.7637ZM13.1765 43.2931H41.4118V47.0578H13.1765V43.2931ZM13.1765 50.8225H41.4118V54.5872H13.1765V50.8225Z" fill="black"/>
</g>
<defs>
<clipPath id="clip0_75_6854">
<rect width="64" height="64" fill="white"/>
</clipPath>
</defs>
</svg>
