<svg width="24" height="24" viewBox="0 0 24 24" fill="none" xmlns="http://www.w3.org/2000/svg">
<path d="M4.77567 18.3727C3.74861 19.3009 3.70979 20.9033 4.69096 21.8845C5.67214 22.8656 7.27802 22.8233 8.20626 21.7927L12.7663 16.7315L9.92155 13.7104L4.77567 18.3727ZM7.12626 20.8292C6.73802 21.2139 6.10626 21.2174 5.71802 20.8327C5.62531 20.74 5.55176 20.63 5.50158 20.5089C5.4514 20.3877 5.42557 20.2579 5.42557 20.1268C5.42557 19.9957 5.4514 19.8659 5.50158 19.7448C5.55176 19.6237 5.62531 19.5136 5.71802 19.4209C6.10626 19.0327 6.73449 19.0327 7.12626 19.4245C7.31118 19.6115 7.41491 19.8638 7.41491 20.1268C7.41491 20.3898 7.31118 20.6422 7.12626 20.8292ZM16.7933 12.2598C16.9098 12.1327 17.0898 12.0833 17.2557 12.1292C21.1991 13.1926 23.5045 9.83647 22.8216 7.04118C22.757 6.77753 22.421 6.69212 22.229 6.88412L20.0372 9.07624C19.8607 9.25271 19.5748 9.25271 19.3948 9.07624L17.5137 7.19153C17.3372 7.01506 17.3372 6.72918 17.5137 6.54918L19.7548 4.30729C19.9433 4.11918 19.8614 3.80541 19.6094 3.71929C17.1353 2.87224 13.2914 5.15294 14.418 9.29153C14.4639 9.46094 14.418 9.63741 14.2874 9.75388L13.4686 10.4986L16.1263 13.0009L16.7933 12.2598ZM10.1686 8.35624L7.99802 10.5268C7.98037 10.5445 7.96273 10.5621 7.94155 10.5798L18.1945 21.4574C18.3799 21.6534 18.6027 21.8102 18.8497 21.9187C19.0967 22.0272 19.3629 22.0851 19.6326 22.089C19.9024 22.093 20.1702 22.0429 20.4202 21.9417C20.6703 21.8405 20.8975 21.6902 21.0886 21.4998C21.2791 21.3086 21.4294 21.0812 21.5305 20.831C21.6316 20.5808 21.6815 20.3128 21.6772 20.043C21.6729 19.7732 21.6146 19.5069 21.5056 19.2601C21.3966 19.0132 21.2392 18.7906 21.0427 18.6056L10.1686 8.35624ZM4.77743 12.7504L5.6739 11.8539C5.72396 11.8039 5.76368 11.7445 5.79077 11.6791C5.81787 11.6137 5.83181 11.5436 5.83181 11.4729C5.83181 11.4021 5.81787 11.332 5.79077 11.2667C5.76368 11.2013 5.72396 11.1419 5.6739 11.0919L5.42508 10.8434C5.14661 10.5646 5.09332 10.1107 5.34284 9.80577C5.40931 9.72395 5.49222 9.65701 5.5862 9.60928C5.68018 9.56154 5.78313 9.53407 5.8884 9.52865C5.99367 9.52322 6.09891 9.53997 6.19729 9.57779C6.29568 9.61562 6.38503 9.67369 6.45955 9.74824L6.73837 10.0274C6.7884 10.0775 6.84782 10.1173 6.91322 10.1444C6.97863 10.1715 7.04874 10.1855 7.11955 10.1855C7.19036 10.1855 7.26047 10.1715 7.32588 10.1444C7.39129 10.1173 7.4507 10.0775 7.50073 10.0274L10.229 7.29918C10.3044 7.2238 10.3642 7.1343 10.405 7.0358C10.4458 6.9373 10.4668 6.83173 10.4668 6.72512C10.4668 6.6185 10.4458 6.51293 10.405 6.41443C10.3642 6.31594 10.3044 6.22644 10.229 6.15106L9.46132 5.38341C9.0392 4.96129 9.03461 4.446 9.3512 4.12941C10.2748 3.20471 11.4131 2.39894 12.7243 1.68847C12.8573 1.61612 12.8107 1.41424 12.6593 1.40965C11.3054 1.368 10.0627 1.70329 8.90543 2.32553C7.62567 3.01377 6.90637 3.84741 4.05884 6.36635C4.0037 6.41511 3.9591 6.47461 3.92778 6.54122C3.89646 6.60783 3.87908 6.68013 3.8767 6.7537C3.87432 6.82726 3.88699 6.90054 3.91395 6.96903C3.9409 7.03752 3.98156 7.09978 4.03343 7.152L4.20743 7.326C4.48943 7.60835 4.54343 8.06824 4.29073 8.37706C4.22335 8.45992 4.13933 8.52771 4.0441 8.57606C3.94888 8.6244 3.84456 8.65222 3.73791 8.65771C3.63125 8.6632 3.52463 8.64624 3.42495 8.60792C3.32526 8.56961 3.23472 8.5108 3.1592 8.43529L2.92979 8.20588C2.87977 8.15582 2.82037 8.11611 2.755 8.08901C2.68963 8.06192 2.61955 8.04797 2.54879 8.04797C2.47802 8.04797 2.40795 8.06192 2.34257 8.08901C2.2772 8.11611 2.2178 8.15582 2.16779 8.20588L1.20073 9.17365C1.11042 9.26399 1.05969 9.3865 1.05969 9.51424C1.05969 9.64197 1.11042 9.76448 1.20073 9.85482L4.09626 12.7504C4.1866 12.8407 4.30911 12.8914 4.43685 12.8914C4.56458 12.8914 4.68709 12.8407 4.77743 12.7504Z" fill="#606A6E"/>
</svg>
