<svg width="24" height="24" viewBox="0 0 24 24" fill="none" xmlns="http://www.w3.org/2000/svg">
<path d="M15.4848 8.66921H16.0531V10.4483H15.4848V8.66921ZM10.4237 5.91197H9.59499V2.43436C9.59499 1.67508 10.2161 1.05394 10.9755 1.05394H21.9172C22.6765 1.05394 23.2976 1.67536 23.2976 2.43436V10.7241C23.2976 11.4831 22.6763 12.1044 21.9172 12.1044H16.8773L19.3871 16.4625L19.7913 16.4637C19.44 16.5828 19.1249 16.7895 18.8757 17.0642C18.8628 17.0476 18.8513 17.0298 18.8413 17.0112L16.4464 12.8526L14.0454 17.0215C14.0155 17.0737 13.9735 17.1179 13.9228 17.1502C13.6637 16.8329 13.3205 16.595 12.9325 16.4635L13.5057 16.4624L16.0155 12.1045H10.9755C10.2167 12.1045 9.59499 11.4833 9.59499 10.7241V8.86674H10.9281C11.2884 8.86696 11.6362 8.73532 11.9061 8.49666L13.8954 6.94214C14.5366 6.44114 14.6506 5.51363 14.1496 4.87233C13.6487 4.23094 12.7209 4.11689 12.0796 4.61803L10.4237 5.91197ZM21.8758 10.4483H21.699V5.81986C21.699 5.65181 21.6306 5.49938 21.5203 5.38913C21.4101 5.27888 21.2576 5.21049 21.0896 5.21049H20.24C20.0719 5.21049 19.9195 5.27888 19.8093 5.38913C19.699 5.49938 19.6306 5.65181 19.6306 5.81986V10.4483H19.2511V7.20347C19.2511 7.12351 19.2354 7.04432 19.2047 6.97045C19.1741 6.89658 19.1292 6.82949 19.0726 6.77301C19.016 6.71654 18.9488 6.67179 18.8749 6.64135C18.8009 6.6109 18.7217 6.59536 18.6417 6.5956V6.59414H17.7921C17.6254 6.59414 17.4732 6.66277 17.3621 6.77353L17.3614 6.77278C17.3049 6.82936 17.2602 6.89654 17.2298 6.97045C17.1994 7.04436 17.1839 7.12355 17.1842 7.20347L17.1828 7.20352V10.4483H16.8032V8.52858C16.8032 8.36053 16.7348 8.2081 16.6246 8.09785C16.5143 7.9876 16.3619 7.91921 16.1938 7.91921H15.3442C15.1762 7.91921 15.0237 7.9876 14.9135 8.09785C14.8032 8.2081 14.7348 8.36053 14.7348 8.52858V10.4483H14.558C14.4585 10.4483 14.3631 10.4879 14.2928 10.5582C14.2225 10.6285 14.183 10.7239 14.183 10.8233C14.183 10.9228 14.2225 11.0182 14.2928 11.0885C14.3631 11.1588 14.4585 11.1983 14.558 11.1983H21.8759C21.9251 11.1983 21.9739 11.1886 22.0194 11.1698C22.0649 11.1509 22.1062 11.1233 22.141 11.0885C22.1758 11.0537 22.2035 11.0123 22.2223 10.9668C22.2411 10.9213 22.2508 10.8726 22.2508 10.8233C22.2508 10.7741 22.2411 10.7253 22.2223 10.6798C22.2034 10.6343 22.1758 10.593 22.141 10.5582C22.1062 10.5233 22.0648 10.4957 22.0193 10.4769C21.9738 10.458 21.9251 10.4483 21.8758 10.4483ZM20.4795 3.94392C19.6677 4.47736 18.8468 4.94489 18.027 5.35547C16.962 5.88881 15.8944 6.32831 14.848 6.69267C14.7556 6.7262 14.6801 6.79481 14.6378 6.88364C14.5956 6.97246 14.5901 7.07434 14.6225 7.1672C14.6548 7.26007 14.7225 7.33644 14.8108 7.37978C14.8991 7.42311 15.0009 7.42991 15.0941 7.39871C16.1649 7.02582 17.2614 6.57403 18.361 6.02339C19.2098 5.59828 20.0579 5.11552 20.8941 4.56614C20.9286 4.63174 20.9818 4.68561 21.0469 4.7209C21.1121 4.75619 21.1862 4.77131 21.26 4.76434C21.3338 4.75736 21.4038 4.72861 21.4612 4.68173C21.5186 4.63486 21.5607 4.57197 21.5823 4.50108L21.7705 3.88055C21.8541 3.64627 21.6899 3.39736 21.4421 3.38147L20.7899 3.31894C20.7146 3.31184 20.639 3.32771 20.573 3.36446C20.5069 3.40121 20.4536 3.45711 20.42 3.5248C20.3863 3.59249 20.374 3.66877 20.3847 3.7436C20.3953 3.81842 20.4283 3.88827 20.4795 3.94392ZM13.9679 2.1811C13.9679 2.28055 14.0074 2.37594 14.0777 2.44626C14.1481 2.51659 14.2435 2.5561 14.3429 2.5561H18.2127C18.3122 2.5561 18.4076 2.51659 18.4779 2.44626C18.5482 2.37594 18.5877 2.28055 18.5877 2.1811C18.5877 2.08164 18.5482 1.98626 18.4779 1.91593C18.4076 1.8456 18.3122 1.8061 18.2127 1.8061H14.3429C14.2435 1.8061 14.1481 1.8456 14.0777 1.91593C14.0074 1.98626 13.9679 2.08164 13.9679 2.1811ZM13.9679 3.58739C13.9679 3.68685 14.0074 3.78223 14.0777 3.85256C14.1481 3.92288 14.2435 3.96239 14.3429 3.96239H18.2127C18.3122 3.96239 18.4076 3.92288 18.4779 3.85256C18.5482 3.78223 18.5877 3.68685 18.5877 3.58739C18.5877 3.48794 18.5482 3.39255 18.4779 3.32223C18.4076 3.2519 18.3122 3.21239 18.2127 3.21239H14.3429C14.2435 3.21239 14.1481 3.2519 14.0777 3.32223C14.0074 3.39255 13.9679 3.48794 13.9679 3.58739ZM12.1811 2.1811C12.1811 2.28055 12.2206 2.37594 12.291 2.44626C12.3613 2.51659 12.4567 2.5561 12.5561 2.5561H13.0907C13.1901 2.5561 13.2855 2.51659 13.3559 2.44626C13.4262 2.37594 13.4657 2.28055 13.4657 2.1811C13.4657 2.08164 13.4262 1.98626 13.3559 1.91593C13.2855 1.8456 13.1901 1.8061 13.0907 1.8061H12.5561C12.4567 1.8061 12.3613 1.8456 12.291 1.91593C12.2206 1.98626 12.1811 2.08164 12.1811 2.1811ZM12.1811 3.58739C12.1811 3.68685 12.2206 3.78223 12.291 3.85256C12.3613 3.92288 12.4567 3.96239 12.5561 3.96239H13.0907C13.1901 3.96239 13.2855 3.92288 13.3559 3.85256C13.4262 3.78223 13.4657 3.68685 13.4657 3.58739C13.4657 3.48794 13.4262 3.39255 13.3559 3.32223C13.2855 3.2519 13.1901 3.21239 13.0907 3.21239H12.5561C12.4567 3.21239 12.3613 3.2519 12.291 3.32223C12.2206 3.39255 12.1811 3.48794 12.1811 3.58739ZM17.9327 10.4483H18.5011V7.34414H17.9327V10.4483ZM20.3806 10.4483H20.949V5.96049H20.3806V10.4483ZM11.7669 17.0996C10.978 17.0996 10.3386 17.739 10.3386 18.5279C10.3386 19.3168 10.9781 19.9562 11.7669 19.9562C12.5558 19.9562 13.1952 19.3168 13.1952 18.5279C13.1952 17.739 12.5558 17.0996 11.7669 17.0996ZM4.75374 5.88713C5.83369 5.88713 6.70918 4.73649 6.70918 3.31711C6.70918 1.89774 5.83369 1.28231 4.75374 1.28231C3.67378 1.28231 2.79825 1.89778 2.79825 3.31711C2.79825 4.73644 3.67374 5.88713 4.75374 5.88713ZM12.1038 22.5309C12.2403 21.7981 12.5641 21.1131 13.0436 20.5424C12.7814 20.4643 12.5092 20.4248 12.2356 20.425C10.8766 20.425 9.74189 21.3847 9.47175 22.6632C9.45666 22.7348 9.47302 22.8025 9.51905 22.8593C9.56508 22.9161 9.62799 22.946 9.70111 22.946H12.1147C12.0815 22.81 12.0778 22.6685 12.1038 22.5309ZM10.9281 8.11674C11.1194 8.11674 11.2935 8.04286 11.4233 7.92206L13.4336 6.35114C13.749 6.10477 13.8049 5.64938 13.5586 5.33396C13.3123 5.01853 12.8568 4.96256 12.5414 5.20894L10.682 6.66197H2.60836C1.605 6.66197 0.357049 7.30571 0.351378 8.44167L0.328878 12.9333C0.325174 13.6621 0.832784 14.2921 1.51519 14.5664V8.44167C1.51519 8.34222 1.5547 8.24684 1.62503 8.17651C1.69535 8.10618 1.79073 8.06667 1.89019 8.06667C1.98965 8.06667 2.08503 8.10618 2.15536 8.17651C2.22568 8.24684 2.26519 8.34222 2.26519 8.44167V22.3381H4.30261V15.0932C4.30261 14.9938 4.34212 14.8984 4.41245 14.8281C4.48277 14.7577 4.57816 14.7182 4.67761 14.7182C4.77707 14.7182 4.87245 14.7577 4.94278 14.8281C5.0131 14.8984 5.05261 14.9938 5.05261 15.0932V22.3381H7.23122L7.25218 9.37828L8.29524 8.11674H10.9281ZM14.5573 17.4505C14.5573 18.4545 15.3713 19.2685 16.3753 19.2685C17.3794 19.2685 18.1933 18.4545 18.1933 17.4505C18.1933 16.4465 17.3794 15.6325 16.3753 15.6325C15.3713 15.6325 14.5573 16.4465 14.5573 17.4505ZM23.2976 16.4738L21.198 16.4678C21.6124 16.6104 21.9704 16.8746 22.2292 17.2178L23.2977 17.2208C23.3473 17.2218 23.3967 17.2128 23.4429 17.1945C23.489 17.1761 23.5311 17.1488 23.5665 17.114C23.602 17.0792 23.6301 17.0377 23.6494 16.9919C23.6686 16.9461 23.6785 16.8969 23.6785 16.8473C23.6785 16.7976 23.6686 16.7484 23.6494 16.7026C23.6301 16.6568 23.6019 16.6153 23.5665 16.5805C23.531 16.5458 23.489 16.5184 23.4428 16.5001C23.3966 16.4817 23.3473 16.4728 23.2976 16.4738ZM19.0606 18.5279C19.0606 19.3168 19.7001 19.9562 20.4889 19.9562C21.2777 19.9562 21.9172 19.3168 21.9172 18.5279C21.9172 17.739 21.2777 17.0996 20.4889 17.0996C19.7001 17.0996 19.0606 17.739 19.0606 18.5279ZM16.3753 19.7373C14.6164 19.7373 13.1527 21.0002 12.841 22.6687C12.8278 22.7395 12.8451 22.8059 12.8911 22.8614C12.9372 22.9169 12.9993 22.9461 13.0714 22.9461H19.6792C19.7513 22.9461 19.8134 22.9169 19.8594 22.8614C19.9055 22.8059 19.9228 22.7395 19.9096 22.6687C19.5979 21.0002 18.1341 19.7373 16.3753 19.7373ZM11.5308 16.4663L7.70897 16.4738C7.61093 16.4753 7.51742 16.5153 7.44864 16.5852C7.37985 16.6551 7.3413 16.7492 7.3413 16.8473C7.3413 16.9454 7.37985 17.0395 7.44864 17.1094C7.51742 17.1793 7.61093 17.2193 7.70897 17.2208L10.4973 17.2153C10.7569 16.8722 11.1156 16.6083 11.5308 16.4663ZM20.4889 20.425C20.2157 20.425 19.9516 20.4638 19.7018 20.5362C20.1841 21.1081 20.5098 21.7954 20.6468 22.5309C20.673 22.6711 20.6687 22.8121 20.6359 22.946H23.0234C23.0965 22.946 23.1594 22.916 23.2055 22.8593C23.2515 22.8025 23.2679 22.7347 23.2528 22.6632C22.9826 21.3847 21.8478 20.425 20.4889 20.425Z" fill="black"/>
</svg>
