<svg width="64" height="64" viewBox="0 0 64 64" fill="none" xmlns="http://www.w3.org/2000/svg">
<g clip-path="url(#clip0_75_6762)">
<path d="M31.9999 64C49.6446 64 63.9997 49.6449 63.9997 32.0002C63.9997 14.3553 49.6446 0 31.9999 0C14.3552 0 0.00012207 14.3553 0.00012207 32.0002C0.00012207 49.6449 14.3552 64 31.9999 64ZM11.1364 47.7988C13.672 46.8016 16.8644 46.0068 20.4527 45.4622C20.9398 48.387 21.5864 51.0985 22.3835 53.4903C22.8011 54.7429 23.2407 55.8486 23.6949 56.8309C18.6519 55.1397 14.2897 51.9526 11.1364 47.7988ZM5.81827 32.0002C5.81827 28.1709 6.64483 24.5311 8.12827 21.2496C11.2745 22.5965 15.2489 23.6386 19.7262 24.3113C19.5036 26.8682 19.3928 29.4336 19.3939 32.0002C19.3939 34.6265 19.5082 37.2045 19.7262 39.6889C15.2489 40.3618 11.2743 41.4039 8.12846 42.7508C6.64483 39.4693 5.81827 35.8295 5.81827 32.0002ZM31.9999 5.81815C32.6264 5.81815 34.4521 7.41445 36.0971 12.3496C36.7731 14.3782 37.3292 16.6789 37.7581 19.17C35.8414 19.3034 33.9206 19.3701 31.9992 19.3698C30.0394 19.3698 28.1115 19.3009 26.2417 19.17C26.6707 16.6789 27.2267 14.3784 27.903 12.3498C29.548 7.41445 31.3735 5.81815 31.9999 5.81815ZM31.9992 25.1879C34.2153 25.1879 36.3878 25.1065 38.492 24.9511C38.6863 27.2212 38.7878 29.5845 38.7878 32.0002C38.7878 34.4159 38.6863 36.7788 38.4922 39.0489C36.3317 38.8904 34.1662 38.8114 31.9999 38.8121C29.784 38.8121 27.6119 38.8935 25.5078 39.0489C25.3135 36.7788 25.2121 34.4157 25.2121 32.0002C25.2121 29.5845 25.3135 27.2214 25.5078 24.9511C27.668 25.1096 29.8332 25.1886 31.9992 25.1879ZM58.1816 32.0002C58.1816 35.8293 57.355 39.469 55.8716 42.7504C52.7253 41.4035 48.751 40.3617 44.2737 39.6889C44.4963 37.132 44.6071 34.5667 44.6059 32.0002C44.6059 29.3735 44.4917 26.7957 44.2737 24.3111C48.751 23.6384 52.7253 22.5961 55.8712 21.249C57.355 24.5307 58.1816 28.1707 58.1816 32.0002ZM31.9999 58.1819C31.3735 58.1819 29.548 56.5854 27.9032 51.6504C27.2269 49.6216 26.6709 47.3211 26.2417 44.83C28.1582 44.6965 30.0788 44.6299 31.9999 44.6302C33.9601 44.6302 35.8882 44.6991 37.7581 44.83C37.3292 47.3211 36.7731 49.6218 36.0971 51.6504C34.4521 56.5856 32.6265 58.1819 31.9999 58.1819ZM40.3053 56.8309C40.7593 55.8486 41.199 54.7429 41.6166 53.4903C42.4138 51.0985 43.0604 48.387 43.5476 45.4622C47.1354 46.0068 50.3279 46.8014 52.8634 47.7986C49.7104 51.9522 45.3483 55.1396 40.3053 56.8309ZM52.863 16.201C50.3279 17.1982 47.1354 17.9932 43.5474 18.5376C43.0602 15.613 42.4138 12.9014 41.6166 10.5097C41.1992 9.25706 40.7593 8.15142 40.3051 7.16893C45.3479 8.86046 49.71 12.0474 52.863 16.201ZM23.6949 7.16912C23.2407 8.15122 22.8012 9.25706 22.3835 10.5097C21.5864 12.9017 20.9398 15.6132 20.4527 18.538C16.8644 17.9934 13.672 17.1986 11.1364 16.2016C14.2895 12.0478 18.6517 8.86026 23.6949 7.16912Z" fill="black"/>
</g>
<defs>
<clipPath id="clip0_75_6762">
<rect width="64" height="64" fill="white"/>
</clipPath>
</defs>
</svg>
